<?xml version="1.0" encoding="utf-8"?>
<!-- Generator: Adobe Illustrator 28.0.0, SVG Export Plug-In . SVG Version: 6.00 Build 0)  -->
<svg version="1.1" id="Layer_1" xmlns="http://www.w3.org/2000/svg" xmlns:xlink="http://www.w3.org/1999/xlink" x="0px" y="0px"
	 viewBox="0 0 1999 2000" style="enable-background:new 0 0 1999 2000;" xml:space="preserve">
<style type="text/css">
	
		.st0{clip-path:url(#SVGID_00000127734966186877490920000004313678359209744549_);fill:#FFFFFF;stroke:#009444;stroke-miterlimit:10;}
	.st1{clip-path:url(#SVGID_00000127734966186877490920000004313678359209744549_);}
	.st2{fill:none;stroke:#009444;stroke-width:3;stroke-miterlimit:10;}
	.st3{fill:#010101;stroke:#009444;stroke-miterlimit:10;}
</style>
<g>
	<defs>
		<rect id="SVGID_1_" x="-0.5" width="2000" height="2000"/>
	</defs>
	<clipPath id="SVGID_00000062889517272430683270000010611956345929143180_">
		<use xlink:href="#SVGID_1_"  style="overflow:visible;"/>
	</clipPath>
	
		<rect x="-0.5" style="clip-path:url(#SVGID_00000062889517272430683270000010611956345929143180_);fill:#FFFFFF;stroke:#009444;stroke-miterlimit:10;" width="2000" height="2000"/>
	<g style="clip-path:url(#SVGID_00000062889517272430683270000010611956345929143180_);">
		<g>
			<g>
				<g>
					<polyline class="st2" points="1044.59,875.84 1112.62,807.81 1112.62,631.07 1210.98,532.71 					"/>
					<polyline class="st2" points="1105.06,590.4 1209.54,485.92 1209.54,350.31 					"/>
					<polyline class="st2" points="1068.16,565.68 1154.5,479.34 1154.5,271.45 					"/>
					<polyline class="st2" points="1082.83,887.16 1164.74,887.16 1297.95,753.95 1566.56,753.95 1624.79,695.72 					"/>
					<polyline class="st2" points="1105.06,854.47 1154.5,854.47 1417.89,591.08 1546.16,591.08 					"/>
					<polyline class="st2" points="1139.74,821.6 1275.79,685.55 1275.79,591.08 1414.85,452.02 					"/>
					<polyline class="st2" points="1325.61,487.58 1246.99,566.2 1246.99,661.94 1139.66,769.28 					"/>
					<line class="st2" x1="1325.61" y1="722.78" x2="1546.16" y2="722.78"/>
					<polyline class="st2" points="1364.53,695.72 1419.15,641.11 1486.22,641.11 					"/>
					<polyline class="st2" points="1205.37,886.92 1507.85,886.92 1544.18,850.59 1711.23,850.59 					"/>
				</g>
				<g>
					<g>
						<polyline class="st2" points="981.37,883.43 913.34,815.4 913.34,638.65 814.98,540.29 						"/>
						<polyline class="st2" points="920.9,597.99 816.42,493.5 816.42,357.9 						"/>
						<polyline class="st2" points="943.13,658.45 943.13,798.49 1002.05,857.41 1002.05,913 						"/>
						<polyline class="st2" points="981.37,803.94 981.37,531.49 1013.03,499.83 1013.03,322.62 						"/>
						<polyline class="st2" points="957.8,573.27 871.46,486.92 871.46,279.03 						"/>
						<polyline class="st2" points="943.13,509.7 978.13,474.7 978.13,237.26 						"/>
						<polyline class="st2" points="921.36,894.75 861.22,894.75 728.01,761.54 459.4,761.54 401.17,703.31 						"/>
						<polyline class="st2" points="920.9,862.06 871.46,862.06 608.07,598.67 479.8,598.67 						"/>
						<polyline class="st2" points="886.22,829.18 750.17,693.13 750.17,598.67 611.11,459.61 						"/>
						<polyline class="st2" points="700.35,495.17 778.97,573.79 778.97,669.53 886.3,776.86 						"/>
						<line class="st2" x1="700.35" y1="730.36" x2="479.8" y2="730.36"/>
						<polyline class="st2" points="661.43,703.31 606.81,648.69 539.74,648.69 						"/>
					</g>
					<polyline class="st2" points="814.98,894.75 512.49,894.75 476.17,931.07 309.12,931.07 					"/>
				</g>
				<polyline class="st2" points="1024.12,829.18 1024.12,540.29 1072.5,491.92 1072.5,373.48 				"/>
				<line class="st2" x1="1111.33" y1="470.36" x2="1111.33" y2="322.62"/>
				<polyline class="st2" points="1081.45,609.07 1081.45,798.65 1056.45,823.65 				"/>
				<polyline class="st2" points="784.66,862.06 590.08,862.06 544.21,816.19 365.29,816.19 				"/>
				<line class="st2" x1="339.77" y1="868.75" x2="539.74" y2="868.75"/>
				<polyline class="st2" points="748.67,829.18 713.15,793.67 620.56,793.67 				"/>
				<polyline class="st2" points="1244.67,854.47 1405.29,854.47 1462.93,796.83 1650.75,796.83 				"/>
				<polyline class="st2" points="1283.6,816.19 1364.53,816.19 1391.47,789.25 				"/>
			</g>
			<g>
				<g>
					<polyline class="st2" points="973.37,1122.24 905.35,1190.26 905.35,1367.01 806.98,1465.37 					"/>
					<polyline class="st2" points="912.9,1407.68 808.42,1512.16 808.42,1647.76 					"/>
					<polyline class="st2" points="949.81,1432.39 863.46,1518.74 863.46,1726.63 					"/>
					<polyline class="st2" points="935.13,1110.91 853.22,1110.91 720.01,1244.13 451.4,1244.13 393.17,1302.35 					"/>
					<polyline class="st2" points="912.9,1143.61 863.46,1143.61 600.08,1406.99 471.81,1406.99 					"/>
					<polyline class="st2" points="878.22,1176.48 742.17,1312.53 742.17,1406.99 603.11,1546.05 					"/>
					<polyline class="st2" points="692.35,1510.49 770.97,1431.88 770.97,1336.13 878.3,1228.8 					"/>
					<line class="st2" x1="692.35" y1="1275.3" x2="471.81" y2="1275.3"/>
					<polyline class="st2" points="653.43,1302.35 598.82,1356.97 531.74,1356.97 					"/>
					<polyline class="st2" points="812.6,1111.16 510.11,1111.16 473.79,1147.48 306.74,1147.48 					"/>
				</g>
				<g>
					<g>
						<polyline class="st2" points="1036.6,1114.65 1104.62,1182.68 1104.62,1359.42 1202.98,1457.78 						"/>
						<polyline class="st2" points="1097.06,1400.09 1201.55,1504.57 1201.55,1640.18 						"/>
						<polyline class="st2" points="1074.83,1339.62 1074.83,1199.59 1015.91,1140.67 1015.91,1051.5 						"/>
						<polyline class="st2" points="1036.6,1194.14 1036.6,1466.58 1004.93,1498.25 1004.93,1675.45 						"/>
						<polyline class="st2" points="1060.16,1424.81 1146.51,1511.15 1146.51,1719.04 						"/>
						<polyline class="st2" points="1074.83,1488.38 1039.84,1523.37 1039.84,1760.82 						"/>
						<polyline class="st2" points="1074.83,1103.33 1156.75,1103.33 1289.96,1236.54 1558.57,1236.54 1616.8,1294.77 						"/>
						<polyline class="st2" points="1097.06,1136.02 1146.51,1136.02 1409.89,1399.4 1538.16,1399.4 						"/>
						<polyline class="st2" points="1131.74,1168.89 1267.79,1304.94 1267.79,1399.4 1406.85,1538.46 						"/>
						<polyline class="st2" points="1317.61,1502.91 1239,1424.29 1239,1328.54 1131.66,1221.21 						"/>
						<line class="st2" x1="1317.61" y1="1267.71" x2="1538.16" y2="1267.71"/>
						<polyline class="st2" points="1356.54,1294.77 1411.15,1349.38 1478.23,1349.38 						"/>
					</g>
					<polyline class="st2" points="1202.98,1103.33 1505.47,1103.33 1541.8,1067 1708.85,1067 					"/>
				</g>
				<polyline class="st2" points="993.84,1168.89 993.84,1457.78 945.47,1506.16 945.47,1624.6 				"/>
				<line class="st2" x1="906.63" y1="1527.72" x2="906.63" y2="1675.45"/>
				<polyline class="st2" points="936.52,1389 936.52,1199.43 961.52,1174.43 				"/>
				<polyline class="st2" points="1233.3,1136.02 1427.89,1136.02 1473.75,1181.88 1652.67,1181.88 				"/>
				<line class="st2" x1="1678.2" y1="1129.32" x2="1478.23" y2="1129.32"/>
				<polyline class="st2" points="1269.3,1168.89 1304.81,1204.41 1397.4,1204.41 				"/>
				<polyline class="st2" points="773.29,1143.61 612.68,1143.61 555.03,1201.25 367.22,1201.25 				"/>
				<polyline class="st2" points="734.37,1181.88 653.43,1181.88 626.5,1208.82 				"/>
			</g>
			<line class="st2" x1="963.75" y1="931.07" x2="626.5" y2="931.07"/>
			<polyline class="st2" points="196.51,1028.83 750.5,1028.83 770.56,1008.76 992.75,1008.76 			"/>
			<polyline class="st2" points="365.29,972.3 531.74,972.3 554.46,995.01 680.43,995.01 707.76,967.69 963.25,967.69 			"/>
			<polyline class="st2" points="356.81,1102.65 439.75,1102.65 473.22,1069.18 969.75,1069.18 			"/>
			<line class="st2" x1="1475.14" y1="1067.47" x2="1237.87" y2="1067.47"/>
			<polyline class="st2" points="1064.75,931.07 1425.38,931.07 1445.32,951.02 1711.23,951.02 			"/>
			<line class="st2" x1="1578.21" y1="912.91" x2="1750.36" y2="912.91"/>
			<polyline class="st2" points="1170.73,1070.91 1218.72,1022.91 1790.75,1022.91 			"/>
			<polyline class="st2" points="1040.75,967.45 1317.61,967.45 1339.67,989.5 1662.25,989.5 			"/>
			<polyline class="st2" points="1294.75,997 1159.75,997 1131.45,1025.3 1061.25,1025.3 			"/>
			<line class="st2" x1="925.75" y1="1041" x2="808.42" y2="1041"/>
		</g>
		<g>
			<circle class="st2" cx="604.25" cy="451.5" r="11"/>
			<circle class="st2" cx="808.25" cy="532.5" r="11"/>
			<circle class="st2" cx="816.25" cy="346.5" r="11"/>
			<circle class="st2" cx="943.25" cy="648.5" r="11"/>
			<circle class="st2" cx="1051.25" cy="832.5" r="11"/>
			<circle class="st2" cx="981.25" cy="813.5" r="11"/>
			<circle class="st2" cx="936.25" cy="516.5" r="11"/>
			<circle class="st2" cx="1012.25" cy="311.5" r="11"/>
			<circle class="st2" cx="1111.25" cy="311.5" r="11"/>
			<circle class="st2" cx="1061.25" cy="574.5" r="11"/>
			<circle class="st2" cx="1219.25" cy="525.5" r="11"/>
			<circle class="st2" cx="1132.25" cy="829.5" r="11"/>
			<circle class="st2" cx="1233.25" cy="854.5" r="11"/>
			<circle class="st2" cx="1398.25" cy="780.5" r="11"/>
			<circle class="st2" cx="1356.25" cy="703.5" r="11"/>
			<circle class="st2" cx="1557.25" cy="591.5" r="11"/>
			<circle class="st2" cx="1557.25" cy="722.5" r="11"/>
			<circle class="st2" cx="1722.25" cy="850.5" r="11"/>
			<circle class="st2" cx="1722.25" cy="951.5" r="11"/>
			<circle class="st2" cx="1567.25" cy="913.5" r="11"/>
			<circle class="st2" cx="1228.25" cy="1067.5" r="11"/>
			<circle class="st2" cx="1222.25" cy="1136.5" r="11"/>
			<circle class="st2" cx="1064.25" cy="1102.5" r="11"/>
			<circle class="st2" cx="1124.25" cy="1161.5" r="11"/>
			<circle class="st2" cx="1408.25" cy="1204.5" r="11"/>
			<circle class="st2" cx="1549.25" cy="1267.5" r="11"/>
			<circle class="st2" cx="1413.25" cy="1545.5" r="11"/>
			<circle class="st2" cx="1351.25" cy="1286.5" r="11"/>
			<circle class="st2" cx="1211.25" cy="1465.5" r="11"/>
			<circle class="st2" cx="1146.25" cy="1730.5" r="11"/>
			<circle class="st2" cx="1090.25" cy="1391.5" r="11"/>
			<circle class="st2" cx="994.25" cy="1157.5" r="11"/>
			<circle class="st2" cx="885.25" cy="1168.5" r="11"/>
			<circle class="st2" cx="461.25" cy="1406.5" r="11"/>
			<circle class="st2" cx="461.25" cy="1274.5" r="11"/>
			<circle class="st2" cx="357.25" cy="1201.5" r="11"/>
			<circle class="st2" cx="346.25" cy="1102.5" r="11"/>
			<circle class="st2" cx="354.25" cy="972.5" r="11"/>
			<circle class="st2" cx="330.25" cy="868.5" r="11"/>
			<circle class="st2" cx="393.25" cy="695.5" r="11"/>
			<circle class="st2" cx="660.25" cy="1294.5" r="11"/>
			<circle class="st2" cx="745.25" cy="1181.5" r="11"/>
			<circle class="st2" cx="822.25" cy="1110.5" r="11"/>
			<circle class="st2" cx="932.25" cy="862.5" r="11"/>
			<circle class="st2" cx="1002.25" cy="924.5" r="11"/>
			<circle class="st2" cx="973.25" cy="967.5" r="11"/>
			<circle class="st2" cx="936.25" cy="1040.5" r="11"/>
			<circle class="st2" cx="981.25" cy="1113.5" r="11"/>
			<circle class="st2" cx="895.25" cy="784.5" r="11"/>
			<circle class="st2" cx="826.25" cy="893.5" r="11"/>
			<circle class="st2" cx="756.25" cy="837.5" r="11"/>
			<circle class="st2" cx="711.25" cy="730.5" r="11"/>
			<circle class="st2" cx="528.25" cy="648.5" r="11"/>
			<circle class="st2" cx="684.25" cy="1518.5" r="11"/>
			<circle class="st2" cx="1081.25" cy="1481.5" r="11"/>
			<circle class="st2" cx="945.25" cy="1635.5" r="11"/>
			<circle class="st2" cx="906.25" cy="1516.5" r="11"/>
			<circle class="st2" cx="956.25" cy="1424.5" r="11"/>
			<circle class="st2" cx="800.25" cy="1473.5" r="11"/>
			<circle class="st2" cx="863.25" cy="1737.5" r="11"/>
			<circle class="st2" cx="1467.25" cy="1129.5" r="11"/>
			<circle class="st2" cx="1720.25" cy="1067.5" r="11"/>
			<circle class="st2" cx="1802.25" cy="1022.5" r="11"/>
			<circle class="st2" cx="1073.25" cy="887.5" r="11"/>
			<circle class="st2" cx="1050.25" cy="1025.5" r="11"/>
			<circle class="st2" cx="1422.25" cy="444.5" r="11"/>
			<circle class="st2" cx="1209.25" cy="339.5" r="11"/>
			<circle class="st3" cx="700.75" cy="495" r="11"/>
			<circle class="st3" cx="921.75" cy="601" r="11"/>
			<circle class="st3" cx="871.75" cy="279" r="11"/>
			<circle class="st3" cx="957.75" cy="573" r="11"/>
			<circle class="st3" cx="977.75" cy="237" r="11"/>
			<circle class="st3" cx="1072.75" cy="373" r="11"/>
			<circle class="st3" cx="1154.75" cy="271" r="11"/>
			<circle class="st3" cx="1110.75" cy="472" r="11"/>
			<circle class="st3" cx="1104.75" cy="590" r="11"/>
			<circle class="st3" cx="1325.75" cy="488" r="11"/>
			<circle class="st3" cx="1081.75" cy="609" r="11"/>
			<circle class="st3" cx="1139.75" cy="769" r="11"/>
			<circle class="st3" cx="1023.75" cy="829" r="11"/>
			<circle class="st3" cx="1044.75" cy="876" r="11"/>
			<circle class="st3" cx="1064.75" cy="931" r="11"/>
			<circle class="st3" cx="1039.75" cy="968" r="11"/>
			<circle class="st3" cx="961.75" cy="930" r="11"/>
			<circle class="st3" cx="991.75" cy="1008" r="11"/>
			<circle class="st3" cx="966.75" cy="1067" r="11"/>
			<circle class="st3" cx="807.75" cy="1040" r="11"/>
			<circle class="st3" cx="1015.75" cy="1052" r="11"/>
			<circle class="st3" cx="1294.75" cy="997" r="11"/>
			<circle class="st3" cx="1104.75" cy="854" r="11"/>
			<circle class="st3" cx="1204.75" cy="887" r="11"/>
			<circle class="st3" cx="1170.75" cy="1071" r="11"/>
			<circle class="st3" cx="1094.75" cy="1136" r="11"/>
			<circle class="st3" cx="1036.75" cy="1115" r="11"/>
			<circle class="st3" cx="1036.75" cy="1194" r="11"/>
			<circle class="st3" cx="961.75" cy="1174" r="11"/>
			<circle class="st3" cx="910.75" cy="1144" r="11"/>
			<circle class="st3" cx="877.75" cy="1229" r="11"/>
			<circle class="st3" cx="531.75" cy="1357" r="11"/>
			<circle class="st3" cx="692.75" cy="1275" r="11"/>
			<circle class="st3" cx="626.75" cy="1209" r="11"/>
			<circle class="st3" cx="303.75" cy="1147" r="11"/>
			<circle class="st3" cx="773.75" cy="1143" r="11"/>
			<circle class="st3" cx="196.75" cy="1029" r="11"/>
			<circle class="st3" cx="626.75" cy="931" r="11"/>
			<circle class="st3" cx="784.75" cy="862" r="11"/>
			<circle class="st3" cx="884.75" cy="827" r="11"/>
			<circle class="st3" cx="920.75" cy="895" r="11"/>
			<circle class="st3" cx="980.75" cy="883" r="11"/>
			<circle class="st3" cx="620.75" cy="794" r="11"/>
			<circle class="st3" cx="661.75" cy="703" r="11"/>
			<circle class="st3" cx="479.75" cy="599" r="11"/>
			<circle class="st3" cx="308.75" cy="931" r="11"/>
			<circle class="st3" cx="536.75" cy="869" r="11"/>
			<circle class="st3" cx="364.75" cy="816" r="11"/>
			<circle class="st3" cx="479.75" cy="730" r="11"/>
			<circle class="st3" cx="392.75" cy="1302" r="11"/>
			<circle class="st3" cx="602.75" cy="1546" r="11"/>
			<circle class="st3" cx="1131.75" cy="1221" r="11"/>
			<circle class="st3" cx="1202.75" cy="1103" r="11"/>
			<circle class="st3" cx="1269.75" cy="1169" r="11"/>
			<circle class="st3" cx="1652.75" cy="1182" r="11"/>
			<circle class="st3" cx="1613.75" cy="1294" r="11"/>
			<circle class="st3" cx="1314.75" cy="1268" r="11"/>
			<circle class="st3" cx="1477.75" cy="1349" r="11"/>
			<circle class="st3" cx="1533.75" cy="1399" r="11"/>
			<circle class="st3" cx="1317.75" cy="1503" r="11"/>
			<circle class="st3" cx="1074.75" cy="1340" r="11"/>
			<circle class="st3" cx="1059.75" cy="1425" r="11"/>
			<circle class="st3" cx="1004.75" cy="1675" r="11"/>
			<circle class="st3" cx="906.75" cy="1679" r="11"/>
			<circle class="st3" cx="808.75" cy="1646" r="11"/>
			<circle class="st3" cx="912.75" cy="1407" r="11"/>
			<circle class="st3" cx="936.75" cy="1385" r="11"/>
			<circle class="st3" cx="1201.75" cy="1640" r="11"/>
			<circle class="st3" cx="1039.75" cy="1763" r="11"/>
			<circle class="st3" cx="1677.75" cy="1129" r="11"/>
			<circle class="st3" cx="1474.75" cy="1067" r="11"/>
			<circle class="st3" cx="1283.75" cy="816" r="11"/>
			<circle class="st3" cx="1325.75" cy="723" r="11"/>
			<circle class="st3" cx="1481.75" cy="641" r="11"/>
			<circle class="st3" cx="1624.75" cy="696" r="11"/>
			<circle class="st3" cx="1650.75" cy="797" r="11"/>
			<circle class="st3" cx="1748.75" cy="913" r="11"/>
			<circle class="st3" cx="1661.75" cy="990" r="11"/>
		</g>
	</g>
	<use xlink:href="#SVGID_1_"  style="overflow:visible;fill:none;stroke:#009444;stroke-miterlimit:10;"/>
</g>
<g>
</g>
<g>
</g>
<g>
</g>
<g>
</g>
<g>
</g>
<g>
</g>
</svg>
